<svg width="73" height="72" viewBox="0 0 73 72" fill="none" xmlns="http://www.w3.org/2000/svg">
<g clip-path="url(#clip0_98_3563)">
<path d="M14.5 32C14.5 17.0883 26.5883 5 41.5 5H72.5V36C72.5 50.9117 60.4117 63 45.5 63H14.5V32Z" fill="#007AFF"/>
<path d="M49 62L45.54 58.54" stroke="#001F3E" stroke-width="1.5" stroke-linecap="round" stroke-linejoin="round"/>
<path d="M41 38H21" stroke="#001F3E" stroke-width="1.5" stroke-linecap="round" stroke-linejoin="round"/>
<path d="M21 46H27" stroke="#001F3E" stroke-width="1.5" stroke-linecap="round" stroke-linejoin="round"/>
<path d="M42 60C44.7614 60 47 57.7614 47 55C47 52.2386 44.7614 50 42 50C39.2386 50 37 52.2386 37 55C37 57.7614 39.2386 60 42 60Z" stroke="#001F3E" stroke-width="1.5" stroke-linecap="round" stroke-linejoin="round"/>
<path d="M31 62C14.3064 62 13 60.6936 13 44C13 27.3064 14.3064 26 31 26C47.6936 26 49 27.3064 49 44" stroke="#001F3E" stroke-width="1.5" stroke-linecap="round" stroke-linejoin="round"/>
<path d="M49 63.5C48.6162 63.5 48.2324 63.3535 47.9395 63.0606L44.4795 59.5996C43.8936 59.0137 43.8936 58.0645 44.4795 57.4785C45.0654 56.8926 46.0147 56.8926 46.6006 57.4785L50.0606 60.9395C50.6465 61.5254 50.6465 62.4746 50.0606 63.0606C49.7676 63.3535 49.3838 63.5 49 63.5Z" fill="#001F3E"/>
<path d="M41 39.5H21C20.1719 39.5 19.5 38.8281 19.5 38C19.5 37.1719 20.1719 36.5 21 36.5H41C41.8281 36.5 42.5 37.1719 42.5 38C42.5 38.8281 41.8281 39.5 41 39.5ZM27 47.5H21C20.1719 47.5 19.5 46.8281 19.5 46C19.5 45.1719 20.1719 44.5 21 44.5H27C27.8281 44.5 28.5 45.1719 28.5 46C28.5 46.8281 27.8281 47.5 27 47.5Z" fill="#001F3E"/>
<path d="M42 61.5C38.416 61.5 35.5 58.584 35.5 55C35.5 51.416 38.416 48.5 42 48.5C45.584 48.5 48.5 51.416 48.5 55C48.5 58.584 45.584 61.5 42 61.5ZM42 51.5C40.0703 51.5 38.5 53.0703 38.5 55C38.5 56.9297 40.0703 58.5 42 58.5C43.9297 58.5 45.5 56.9297 45.5 55C45.5 53.0703 43.9297 51.5 42 51.5Z" fill="#001F3E"/>
<path d="M31 63.5C13.5049 63.5 11.5 61.4961 11.5 44C11.5 26.5039 13.5049 24.5 31 24.5C48.4951 24.5 50.5 26.5039 50.5 44C50.5 44.8281 49.8281 45.5 49 45.5C48.1719 45.5 47.5 44.8281 47.5 44C47.5 28.1172 46.8828 27.5 31 27.5C15.1172 27.5 14.5 28.1172 14.5 44C14.5 59.8828 15.1172 60.5 31 60.5C31.8281 60.5 32.5 61.1719 32.5 62C32.5 62.8281 31.8281 63.5 31 63.5Z" fill="#001F3E"/>
</g>
<defs>
<clipPath id="clip0_98_3563">
<rect width="72" height="72" fill="white" transform="translate(0.5)"/>
</clipPath>
</defs>
</svg>
