<svg width="73" height="72" viewBox="0 0 73 72" fill="none" xmlns="http://www.w3.org/2000/svg">
<path d="M14.5 32C14.5 17.0883 26.5883 5 41.5 5H72.5V36C72.5 50.9117 60.4117 63 45.5 63H14.5V32Z" fill="#007AFF"/>
<path d="M41.34 32.7802C41.18 31.1602 39.94 29.8602 38.34 29.6402C36.3 29.3602 34.32 28.7602 32.46 27.8802C30.22 26.8202 28.2 25.3602 26.42 23.5402C25.12 22.2002 22.88 22.2002 21.58 23.5402C19.8 25.3602 17.78 26.8202 15.54 27.8802C13.68 28.7602 11.7 29.3602 9.66001 29.6402C8.06001 29.8602 6.82001 31.1602 6.66001 32.7802C6.24001 36.8402 6.06001 47.1402 13.12 54.8602C15.78 57.7602 19.08 59.9002 22.92 61.2202C23.28 61.3402 23.64 61.4002 24 61.4002C24.36 61.4002 24.72 61.3402 25.08 61.2202C28.92 59.9002 32.22 57.7602 34.88 54.8602C41.96 47.1402 41.76 36.8602 41.34 32.7802ZM32.66 52.8202C30.34 55.3602 27.46 57.2202 23.9 58.3802C20.54 57.2202 17.66 55.3602 15.34 52.8202C9.10001 46.0002 9.28001 36.7402 9.64001 33.0802C9.66001 32.8202 9.84001 32.6402 10.06 32.6002C12.4 32.2802 14.68 31.6002 16.82 30.5802C19.38 29.3602 21.7 27.7002 23.7 25.6202C23.78 25.5402 23.88 25.5002 23.98 25.5002C24.08 25.5002 24.18 25.5402 24.26 25.6202C26.28 27.7002 28.6 29.3602 31.16 30.5802C33.3 31.6002 35.58 32.2802 37.92 32.6002C38.16 32.6402 38.32 32.8202 38.34 33.0802C38.72 36.7402 38.9 46.0202 32.66 52.8202Z" fill="#001F3E"/>
<path d="M28.8 37.1001L23.84 43.7201L21.06 40.9401C20.48 40.3601 19.52 40.3601 18.94 40.9401C18.36 41.5201 18.36 42.4801 18.94 43.0601L22.94 47.0601C23.22 47.3401 23.6 47.5001 24 47.5001C24.04 47.5001 24.08 47.5001 24.1 47.5001C24.54 47.4601 24.94 47.2601 25.2 46.9001L31.2 38.9001C31.7 38.2401 31.56 37.3001 30.9 36.8001C30.24 36.3001 29.3 36.4401 28.8 37.1001Z" fill="#001F3E"/>
</svg>
