<svg width="73" height="72" viewBox="0 0 73 72" fill="none" xmlns="http://www.w3.org/2000/svg">
<g clip-path="url(#clip0_98_3550)">
<path d="M14.5 32C14.5 17.0883 26.5883 5 41.5 5H72.5V36C72.5 50.9117 60.4117 63 45.5 63H14.5V32Z" fill="#007AFF"/>
<path d="M24.16 46.7502L25 51.8202C25.0476 52.1146 24.9764 52.4158 24.802 52.6577C24.6276 52.8996 24.3644 53.0623 24.07 53.1102H23.89C23.62 53.1179 23.3562 53.0281 23.1469 52.8574C22.9376 52.6866 22.7967 52.4462 22.75 52.1802L22.045 47.8452L21.6775 45.5952L21.25 42.6927C21.1811 42.2528 20.9574 41.8521 20.6191 41.5627C20.2808 41.2732 19.8502 41.1142 19.405 41.1142C18.9598 41.1142 18.5293 41.2732 18.191 41.5627C17.8527 41.8521 17.6289 42.2528 17.56 42.6927L17.0875 45.5952L16.72 47.8452L16 52.1802C15.9764 52.3279 15.9239 52.4696 15.8455 52.597C15.7671 52.7244 15.6644 52.8352 15.5432 52.923C15.4221 53.0107 15.2848 53.0737 15.1392 53.1084C14.9937 53.1431 14.8428 53.1488 14.695 53.1252C14.5473 53.1015 14.4057 53.049 14.2782 52.9707C14.1508 52.8923 14.04 52.7896 13.9523 52.6684C13.8645 52.5472 13.8015 52.4099 13.7668 52.2644C13.7321 52.1189 13.7264 51.9679 13.75 51.8202L14.62 46.4952L15.295 42.3327C15.4508 41.3667 15.9454 40.4878 16.6903 39.8534C17.4352 39.219 18.3816 38.8706 19.36 38.8706C20.3384 38.8706 21.2849 39.219 22.0298 39.8534C22.7747 40.4878 23.2693 41.3667 23.425 42.3327L24.0775 46.3227L24.16 46.7502Z" fill="#001F3E"/>
<path d="M24.16 46.7501C24.1446 47.036 24.0201 47.305 23.8122 47.5018C23.6042 47.6986 23.3287 47.808 23.0425 47.8076H15.7375C15.4391 47.8076 15.1529 47.6891 14.942 47.4781C14.731 47.2671 14.6125 46.981 14.6125 46.6826C14.6051 46.6078 14.6051 46.5324 14.6125 46.4576C14.663 46.2029 14.8007 45.9737 15.0019 45.8094C15.2031 45.6452 15.4552 45.5561 15.715 45.5576H23.02C23.251 45.5587 23.4761 45.6314 23.6641 45.7658C23.8522 45.9001 23.994 46.0894 24.07 46.3076L24.16 46.7501ZM29.125 53.1251C28.8266 53.1251 28.5404 53.0066 28.3295 52.7956C28.1185 52.5846 28 52.2985 28 52.0001V43.7501C28 43.4517 28.1185 43.1656 28.3295 42.9546C28.5404 42.7436 28.8266 42.6251 29.125 42.6251C29.4233 42.6251 29.7095 42.7436 29.9205 42.9546C30.1314 43.1656 30.25 43.4517 30.25 43.7501V52.0001C30.25 52.2985 30.1314 52.5846 29.9205 52.7956C29.7095 53.0066 29.4233 53.1251 29.125 53.1251ZM29.125 41.7326C28.8267 41.7323 28.5407 41.6137 28.33 41.4026C28.1203 41.1909 28.0018 40.9056 28 40.6076C28.0001 40.4415 28.0371 40.2776 28.1082 40.1275C28.1792 39.9774 28.2826 39.8449 28.411 39.7395C28.5393 39.6341 28.6894 39.5584 28.8505 39.5179C29.0115 39.4774 29.1795 39.473 29.3425 39.5051L29.5525 39.5651L29.7475 39.6701C29.8083 39.7135 29.8659 39.7611 29.92 39.8126C30.0771 39.9699 30.1841 40.1703 30.2274 40.3884C30.2707 40.6065 30.2485 40.8326 30.1634 41.038C30.0783 41.2434 29.9343 41.4191 29.7495 41.5427C29.5646 41.6663 29.3473 41.7324 29.125 41.7326Z" fill="#001F3E"/>
<path d="M30.01 62.6352H13.99C11.7031 62.6332 9.51046 61.7239 7.89339 60.1068C6.27632 58.4898 5.36698 56.2971 5.36499 54.0102V37.9902C5.36698 35.7034 6.27632 33.5107 7.89339 31.8936C9.51046 30.2766 11.7031 29.3672 13.99 29.3652H30.01C32.2969 29.3672 34.4895 30.2766 36.1066 31.8936C37.7237 33.5107 38.633 35.7034 38.635 37.9902V54.0102C38.633 56.2971 37.7237 58.4898 36.1066 60.1068C34.4895 61.7239 32.2969 62.6332 30.01 62.6352ZM13.99 31.6152C12.2998 31.6172 10.6795 32.2895 9.48438 33.4846C8.28926 34.6797 7.61698 36.3001 7.61499 37.9902V54.0102C7.61698 55.7004 8.28926 57.3207 9.48438 58.5158C10.6795 59.711 12.2998 60.3832 13.99 60.3852H30.01C31.7001 60.3832 33.3205 59.711 34.5156 58.5158C35.7107 57.3207 36.383 55.7004 36.385 54.0102V37.9902C36.383 36.3001 35.7107 34.6797 34.5156 33.4846C33.3205 32.2895 31.7001 31.6172 30.01 31.6152H13.99Z" fill="#001F3E"/>
</g>
<defs>
<clipPath id="clip0_98_3550">
<rect width="72" height="72" fill="white" transform="translate(0.5)"/>
</clipPath>
</defs>
</svg>
